<svg version="1.1" xmlns="http://www.w3.org/2000/svg" xmlns:xlink="http://www.w3.org/1999/xlink" x="0px" y="0px" viewBox="0 0 418 472" enable-background="new 0 0 418 472" xml:space="preserve">
	<polygon fill="#0070BB" points="13,10 408,10 372.7,409.3 210.6,456.8 48,411.3 "/>
	<polygon fill="#CFCFCF" points="210.6,319.8 144.7,307.9 142,268 93.3,268 100.7,344.2 210.5,371.5 210.6,371.4 210.6,319.8 "/>
	<polygon fill="#CFCFCF" points="341,89 210.9,89 75,89 80,135 206.3,135 85.3,188.4 90,237 210.7,237 273,237 269.3,301.4  210.6,319.8 210.6,371.4 320,341.9 332,189 227,189 336.8,140.6 "/>
	<polygon fill="#FFFFFF" points="332,189 227,189 336.8,140.6 341,89 210.9,89 210.7,237 273,237 269.3,301.4 210.6,319.8  210.6,371.4 320,341.9 "/>
	<polygon fill="#2AA8E1" points="273,237 210.7,237 210.6,319.8 269.3,301.4 "/>
	<polygon fill="#2AA8E1" points="211,41 210.9,89 341,89 336.8,140.6 227,189 332,189 320,341.9 210.6,371.4 210.5,422 341,385  372,41 "/>
</svg>