<svg version="1.1" xmlns="http://www.w3.org/2000/svg" xmlns:xlink="http://www.w3.org/1999/xlink" x="0px" y="0px" viewBox="0 0 353 406" enable-background="new 0 0 353 406" xml:space="preserve">
	<polygon fill="#E44D26" points="12,25 340,25 309.7,358.9 176,396.4 41.7,359.6 "/>
	<polygon fill="none" points="122.5,176 176,176 176,135 118,135 "/>
	<polygon fill="#F16529" points="225.5,218 176,218 176,282 221,270.3 "/>
	<polygon fill="#EBEBEB" points="275,135 277.3,95 176,95 73.3,95 84,218 176,218 225.5,218 221,270.3 176,282 130.5,270 127,238  86,238 92,302.5 176,326 260.5,302 271,176 176,176 122.5,176 118,135 176,135 "/>
	<polygon fill="#F16529" points="176,53 176,95 277.3,95 275,135 176,135 176,176 271,176 260.5,302 176,326 176,367 284.5,338  309,53 "/>
	<polygon fill="#FFFFFF" points="271,176 176,176 176,218 225.5,218 221,270.3 176,282 176,326 260.5,302 "/>
	<polygon fill="#FFFFFF" points="275,135 277.3,95 176,95 176,135 "/>
</svg>